<?xml version="1.0" standalone="no"?>
<!DOCTYPE svg PUBLIC "-//W3C//DTD SVG 20010904//EN"
 "http://www.w3.org/TR/2001/REC-SVG-20010904/DTD/svg10.dtd">
<svg version="1.0" xmlns="http://www.w3.org/2000/svg"
 width="700.000000pt" height="700.000000pt" viewBox="0 0 700.000000 700.000000"
 preserveAspectRatio="xMidYMid meet">
<metadata>
Created by potrace 1.11, written by Peter Selinger 2001-2013
</metadata>
<g transform="translate(0.000000,700.000000) scale(0.100000,-0.100000)"
fill="#000000" stroke="none">
<path d="M679 6926 c-2 -2 -23 -7 -46 -11 -118 -17 -257 -91 -354 -187 -90
-90 -132 -161 -182 -303 l-21 -60 -2 -2830 c-2 -2344 0 -2842 11 -2901 54
-284 286 -509 570 -553 77 -12 5670 -10 5714 2 124 34 139 40 258 105 45 25
168 158 206 223 21 35 50 100 65 144 l27 80 2 2840 c1 2762 1 2842 -18 2919
-11 43 -33 107 -50 142 -28 61 -141 214 -157 214 -4 0 -21 14 -39 30 -18 17
-35 30 -38 30 -4 0 -20 9 -36 21 -16 11 -56 32 -90 45 -137 56 27 53 -3010 53
-1543 1 -2808 -1 -2810 -3z"/>
</g>
</svg>
